<svg width="96" height="96" viewBox="0 0 96 96" fill="none" xmlns="http://www.w3.org/2000/svg">
<path d="M81.2109 11.9372C80.0551 11.9875 78.9943 12.3199 78.0625 12.6872C77.2016 13.0263 74.1102 14.3256 69.1875 16.3903C64.2648 18.4551 57.7419 21.1927 50.7891 24.1169C36.8834 29.9654 21.257 36.5442 13.25 39.9138C12.975 40.0283 11.8583 40.3702 10.625 41.3122C9.3888 42.2564 8.01562 44.3056 8.01562 46.5466C8.01562 48.3544 8.91808 50.1956 10.0078 51.2497C11.0975 52.3039 12.202 52.7967 13.125 53.1638V53.156C16.2451 54.399 25.5628 58.1275 27.7812 59.0153C28.5682 61.3735 31.9464 71.4688 32.75 74.0075H32.7422C33.3102 75.8044 33.8639 76.9754 34.6328 77.9528C35.0173 78.4416 35.4762 78.8845 36.0391 79.2341C36.255 79.3683 36.4942 79.4723 36.7344 79.57C36.7678 79.5842 36.8023 79.5878 36.8359 79.6013L36.7422 79.5778C36.8118 79.6058 36.8743 79.6472 36.9453 79.6716C37.061 79.7114 37.1411 79.7101 37.2969 79.7419C37.8449 79.9105 38.3919 80.0232 38.8984 80.0232C41.0729 80.0232 42.4062 78.8435 42.4062 78.8435L42.4922 78.781L51.8828 70.8357L63.3828 81.4763C63.5929 81.7729 65.2384 83.9997 69.0469 83.9997C71.3194 83.9997 73.1161 82.8749 74.2656 81.695C75.4151 80.5152 76.1312 79.308 76.4531 77.6716L76.4609 77.6638C76.7177 76.3431 87.7266 21.0622 87.7266 21.0622L87.7031 21.156C88.0458 19.6266 88.1469 18.1476 87.7422 16.6403C87.3374 15.1331 86.2451 13.6622 84.9297 12.8903C83.6143 12.1185 82.3668 11.8869 81.2109 11.9372ZM79.6328 20.695C79.1978 22.8792 69.336 72.4232 68.7266 75.531L52.1172 60.1638L40.8906 69.656L44 57.4997C44 57.4997 65.4502 35.7872 66.7422 34.5232C67.7822 33.5112 68 33.1564 68 32.8044C68 32.3364 67.7591 31.9997 67.2031 31.9997C66.7031 31.9997 66.0241 32.4788 65.6641 32.7028C61.0895 35.5549 41.6051 46.6585 32.0234 52.1091C31.4468 51.8779 22.7896 48.4015 18.125 46.5388C26.4221 43.0468 40.6446 37.063 53.8906 31.4919C60.8423 28.5682 67.3633 25.8281 72.2812 23.7653C76.4326 22.0241 78.5982 21.1225 79.6328 20.695ZM68.6094 76.1013H68.6172L68.6094 76.1247C68.6145 76.0989 68.6056 76.1215 68.6094 76.1013Z" fill="#D4CFCC"/>
</svg>
