<svg width="72" height="72" viewBox="0 0 72 72" fill="none" xmlns="http://www.w3.org/2000/svg">
<path d="M64 0H8C3.58 0 0 3.58 0 8V64C0 68.42 3.58 72 8 72H64C68.42 72 72 68.42 72 64V8C72 3.58 68.42 0 64 0ZM59.628 50.736L52.688 50.832C52.688 50.832 51.192 51.124 49.232 49.772C46.636 47.988 44.188 43.348 42.28 43.952C40.344 44.568 40.404 48.744 40.404 48.744C40.404 48.744 40.42 49.48 39.976 49.96C39.496 50.476 38.556 50.424 38.556 50.424H35.448C35.448 50.424 28.592 50.992 22.548 44.692C15.964 37.824 10.148 24.268 10.148 24.268C10.148 24.268 9.808 23.412 10.172 22.976C10.584 22.492 11.696 22.48 11.696 22.48L19.124 22.444C19.124 22.444 19.824 22.568 20.328 22.936C20.74 23.24 20.976 23.812 20.976 23.812C20.976 23.812 22.176 26.856 23.768 29.612C26.872 34.984 28.316 36.16 29.368 35.584C30.904 34.744 30.444 27.992 30.444 27.992C30.444 27.992 30.472 25.54 29.672 24.448C29.048 23.596 27.876 23.344 27.36 23.28C26.94 23.224 27.624 22.252 28.516 21.812C29.852 21.16 32.216 21.12 35.004 21.148C37.176 21.172 37.804 21.304 38.652 21.512C41.216 22.132 40.344 24.524 40.344 30.264C40.344 32.104 40.012 34.688 41.336 35.54C41.908 35.908 43.3 35.596 46.776 29.676C48.428 26.868 49.664 23.568 49.664 23.568C49.664 23.568 49.936 22.98 50.356 22.728C50.788 22.468 51.368 22.548 51.368 22.548L59.188 22.5C59.188 22.5 61.536 22.216 61.92 23.284C62.32 24.4 61.044 27.004 57.848 31.264C52.604 38.264 52.02 37.612 56.376 41.66C60.536 45.528 61.396 47.408 61.54 47.644C63.26 50.508 59.628 50.736 59.628 50.736Z" fill="#D4CFCC"/>
</svg>
